<svg xmlns="http://www.w3.org/2000/svg" xmlns:xlink="http://www.w3.org/1999/xlink" id="Layer_1" x="0px" y="0px" viewBox="0 0 2532.3 519.6" style="enable-background:new 0 0 2532.3 519.6;" xml:space="preserve"><style type="text/css">	.st0{fill:#0D3B54;}	.st1{fill:#19BAC3;}	.st2{fill:#0EA4E1;}	.st3{fill:#FFFFFF;}	.st4{fill:#09D3C9;}	.st5{fill:#0E7CB7;}	.st6{fill:#0AA5D2;}	.st7{fill:#12CDC5;}</style><g>	<path class="st0" d="M440.1,45.3H65.9c-17,0-30.8,13.8-30.8,30.8v374.2c0,17,13.8,30.8,30.8,30.8h374.2c17,0,30.8-13.8,30.8-30.8  V76.2C471,59.1,457.2,45.3,440.1,45.3z"></path>	<g>		<rect x="162.6" y="173.5" class="st1" width="20.8" height="20.8"></rect>		<rect x="141.4" y="148.5" class="st2" width="13.3" height="13.3"></rect>		<rect x="151.8" y="114.6" class="st3" width="6" height="6"></rect>		<rect x="169.2" y="134.7" class="st3" width="9" height="9"></rect>		<rect x="168.6" y="231.6" class="st3" width="9" height="9"></rect>		<rect x="219.9" y="121" class="st3" width="7.5" height="7.5"></rect>		<rect x="194.4" y="200.7" class="st4" width="36.8" height="36.8"></rect>		<rect x="195.7" y="141.6" class="st5" width="21.6" height="21.6"></rect>		<rect x="144.7" y="205.3" class="st6" width="13.4" height="13.4"></rect>		<path class="st3" d="M351.2,151.2c-20.1-19.8-44.8-29.8-74-29.8h-26.6v19.7h-18v44.1h44.6c10.5,0,19.1,3.7,25.9,11.1   c6.8,7.4,10.2,16.4,10.2,27.2c0,10.8-3.4,19.8-10.2,27.2c-6.8,7.4-15.4,11.1-25.9,11.1h-44.6v0H195v39.6h-30.5V419h68v-93.5h44.6   c29.2,0,53.8-9.9,74-29.8c20.1-19.8,30.2-43.9,30.2-72.3C381.3,195.1,371.3,171,351.2,151.2z"></path>		<rect x="154.9" y="261.5" class="st3" width="27.1" height="27.1"></rect>	</g></g><g>	<path class="st0" d="M728.5,261.7c-6,10.9-15.3,19.6-27.7,26.3c-12.5,6.7-27.9,10-46.4,10h-34.2v81.2H565V152.9h89.3  c18.1,0,33.3,3.1,45.8,9.4c12.5,6.2,21.8,14.8,28,25.8c6.2,11,9.4,23.5,9.4,37.7C737.5,238.9,734.5,250.9,728.5,261.7z   M673.7,246.7c5.2-4.9,7.7-11.9,7.7-21s-2.6-16-7.7-21c-5.2-4.9-13-7.4-23.5-7.4h-30v56.7h30C660.7,254.2,668.5,251.7,673.7,246.7z  "></path>	<rect x="760.9" y="199.4" class="st0" width="55.1" height="179.9"></rect>	<path class="st0" d="M1213.3,302.5h-124.8c0.9,11.2,4.5,19.7,10.8,25.6c6.3,5.9,14.1,8.9,23.4,8.9c13.8,0,23.3-5.8,28.7-17.4h58.7  c-3,11.8-8.4,22.5-16.3,31.9c-7.8,9.5-17.7,16.9-29.5,22.2c-11.8,5.4-25,8.1-39.7,8.1c-17.6,0-33.3-3.8-47.1-11.3  c-13.8-7.5-24.5-18.3-32.2-32.2c-7.7-14-11.6-30.3-11.6-49c0-18.7,3.8-35,11.4-49c7.6-14,18.3-24.7,32.1-32.2  c13.8-7.5,29.6-11.3,47.4-11.3c17.4,0,32.9,3.7,46.4,11c13.5,7.3,24.1,17.7,31.8,31.3c7.6,13.5,11.4,29.3,11.4,47.4  C1214.3,291.6,1213.9,296.9,1213.3,302.5z M1157.8,271.9c0-9.5-3.2-17-9.7-22.6c-6.4-5.6-14.5-8.4-24.2-8.4c-9.2,0-17,2.7-23.4,8.1  c-6.3,5.4-10.3,13-11.8,22.9H1157.8z"></path>	<path class="st0" d="M1294,140.7v238.6h-55.1V140.7H1294z"></path>	<path class="st0" d="M1581.3,219.7c-6.2-13.1-15.3-23.3-27.1-30.5c-11.8-7.2-25.6-10.8-41.3-10.8c-15.7,0-29.8,3.6-42.4,10.8  c-12.6,7.2-22.5,17.5-29.7,31c-7.2,13.4-10.8,29-10.8,46.6c0,17.6,3.6,33.1,10.8,46.4c7.2,13.3,17.1,23.6,29.7,30.8  c12.6,7.2,26.7,10.8,42.4,10.8c21.9,0,40-6.6,54.2-19.7c14.2-13.1,22.5-30.8,24.8-53.2h-89.6V258h120.9v22.6  c-1.7,18.5-7.5,35.4-17.4,50.8c-9.9,15.4-22.9,27.5-39,36.4c-16.1,8.9-34.1,13.4-53.8,13.4c-20.9,0-39.9-4.9-57.1-14.7  c-17.2-9.8-30.8-23.4-40.8-40.8c-10-17.4-15-37.1-15-59s5-41.6,15-59.2c10-17.5,23.6-31.2,40.8-40.9c17.2-9.8,36.2-14.7,57.1-14.7  c23.9,0,45,5.9,63.4,17.7c18.4,11.8,31.8,28.5,40.1,50H1581.3z"></path>	<path class="st0" d="M1668.6,242.7c7.3-13.6,17.4-24.2,30.1-31.8c12.8-7.5,27-11.3,42.7-11.3c15.5,0,28.9,3.3,40.3,10  c11.4,6.7,19.9,15,25.5,25.1v-32.2h29.7v176.7h-29.7v-32.9c-5.8,10.3-14.5,18.9-26,25.6c-11.5,6.8-24.9,10.2-40.1,10.2  c-15.7,0-29.9-3.9-42.6-11.6c-12.7-7.7-22.7-18.6-30-32.6c-7.3-14-11-29.9-11-47.7C1657.6,272.2,1661.3,256.4,1668.6,242.7z   M1799.2,255.8c-5.4-9.9-12.6-17.5-21.8-22.7c-9.1-5.3-19.2-7.9-30.1-7.9c-11,0-21,2.6-30,7.7c-9,5.2-16.2,12.7-21.6,22.6  c-5.4,9.9-8.1,21.5-8.1,34.8c0,13.5,2.7,25.3,8.1,35.3c5.4,10,12.6,17.6,21.6,22.9c9,5.3,19,7.9,30,7.9c11,0,21-2.6,30.1-7.9  c9.1-5.3,16.4-12.9,21.8-22.9c5.4-10,8.1-21.7,8.1-35C1807.2,277.3,1804.5,265.7,1799.2,255.8z"></path>	<path class="st0" d="M1900.6,140.7v238.6h-29.3V140.7H1900.6z"></path>	<path class="st0" d="M1964.4,140.7v238.6h-29.3V140.7H1964.4z"></path>	<path class="st0" d="M2170,301.9h-141.2c1.1,17.4,7,31,17.9,40.8c10.9,9.8,24,14.7,39.5,14.7c12.7,0,23.3-3,31.8-8.9  c8.5-5.9,14.5-13.8,17.9-23.7h31.6c-4.7,17-14.2,30.8-28.4,41.4c-14.2,10.6-31.8,16-52.9,16c-16.8,0-31.8-3.8-45-11.3  c-13.2-7.5-23.6-18.2-31.1-32.1c-7.5-13.9-11.3-29.9-11.3-48.2c0-18.3,3.7-34.3,11-48c7.3-13.8,17.6-24.3,30.8-31.8  c13.2-7.4,28.4-11.1,45.6-11.1c16.8,0,31.6,3.7,44.5,11c12.9,7.3,22.8,17.4,29.8,30.1c7,12.8,10.5,27.2,10.5,43.4  C2171,289.7,2170.7,295.6,2170,301.9z M2133.3,249.2c-4.9-8.1-11.7-14.2-20.2-18.4c-8.5-4.2-17.9-6.3-28.2-6.3  c-14.8,0-27.5,4.7-37.9,14.2c-10.4,9.5-16.4,22.6-17.9,39.3h111.6C2140.7,266.8,2138.2,257.2,2133.3,249.2z"></path>	<path class="st0" d="M2256.9,207.7c9.6-5.6,21.2-8.4,35-8.4v30.3h-7.7c-32.9,0-49.3,17.8-49.3,53.5v96.1h-29.3V202.6h29.3v28.7  C2239.9,221.2,2247.3,213.3,2256.9,207.7z"></path>	<path class="st0" d="M2499.4,202.6L2393,462.4h-30.3l34.8-85.1l-71.3-174.7h32.6l55.5,143.2l54.8-143.2H2499.4z"></path>	<polygon class="st0" points="838.7,198.8 899.7,198.8 1024.2,378.1 962.1,378.1  "></polygon>	<polygon class="st0" points="899.7,286.5 929.5,330.4 899.5,379.2 839.9,379.2  "></polygon>	<polygon class="st7" points="934.9,232.5 964.9,275.4 1015.6,199.5 956.3,199.5  "></polygon>	<circle class="st0" cx="788.6" cy="150.8" r="29.8"></circle></g></svg>